<svg width="41" height="41" viewBox="0 0 41 41" fill="none" xmlns="http://www.w3.org/2000/svg">
<path d="M6.30769 0C2.83058 0 0 2.83058 0 6.30769V34.6923C0 38.1694 2.83058 41 6.30769 41H26.8077C28.484 41 30.8115 38.5794 33.5096 35.8261C33.8881 35.4413 34.2508 35.0802 34.6434 34.6923C35.0313 34.3012 35.4413 33.8881 35.8261 33.5096C38.581 30.8099 41 28.484 41 26.8077V6.30769C41 2.83058 38.1694 0 34.6923 0H6.30769ZM6.30769 3.15385H34.6923C35.5288 3.15385 36.331 3.48613 36.9224 4.07759C37.5139 4.66905 37.8462 5.47124 37.8462 6.30769V26.8077C37.8462 28.3767 36.2661 28.3846 34.6923 28.3846H29.9615C29.0927 28.3846 28.3846 29.0927 28.3846 29.9615V34.7917C28.3846 36.1904 28.3878 37.556 27.2508 37.8462H6.30769C5.47124 37.8462 4.66905 37.5139 4.07759 36.9224C3.48613 36.331 3.15385 35.5288 3.15385 34.6923V6.30769C3.15385 5.47124 3.48613 4.66905 4.07759 4.07759C4.66905 3.48613 5.47124 3.15385 6.30769 3.15385ZM10.7436 12.6154C10.3254 12.6545 9.93979 12.8581 9.67171 13.1815C9.40363 13.5049 9.27499 13.9215 9.3141 14.3398C9.3532 14.758 9.55684 15.1435 9.88022 15.4116C10.2036 15.6797 10.6202 15.8083 11.0385 15.7692H29.9615C30.3798 15.7692 30.7809 15.6031 31.0766 15.3074C31.3723 15.0116 31.5385 14.6105 31.5385 14.1923C31.5385 13.7741 31.3723 13.373 31.0766 13.0773C30.7809 12.7815 30.3798 12.6154 29.9615 12.6154H11.0385C10.9891 12.6131 10.9396 12.6131 10.8902 12.6154C10.8414 12.6131 10.7924 12.6131 10.7436 12.6154ZM10.7436 20.5C10.5365 20.5194 10.3352 20.5793 10.1513 20.6765C9.96743 20.7736 9.80445 20.906 9.67171 21.0661C9.40363 21.3895 9.27499 21.8061 9.3141 22.2244C9.3532 22.6426 9.55684 23.0282 9.88022 23.2962C10.2036 23.5643 10.6202 23.693 11.0385 23.6538H26.8077C27.2259 23.6538 27.627 23.4877 27.9227 23.192C28.2185 22.8962 28.3846 22.4951 28.3846 22.0769C28.3846 21.6587 28.2185 21.2576 27.9227 20.9619C27.627 20.6661 27.2259 20.5 26.8077 20.5H11.0385C10.9891 20.4977 10.9396 20.4977 10.8902 20.5C10.8414 20.4977 10.7924 20.4977 10.7436 20.5Z" fill="white"/>
</svg>
