<svg width="15" height="15" viewBox="0 0 15 15" fill="none" xmlns="http://www.w3.org/2000/svg">
<path d="M1.89245 0.311519L7.5 5.91887L13.0845 0.334595C13.1823 0.230429 13.3002 0.1471 13.4311 0.0896047C13.562 0.0321092 13.7031 0.00163184 13.846 0C14.152 0 14.4455 0.121558 14.6619 0.337933C14.8783 0.554308 14.9998 0.847776 14.9998 1.15378C15.0025 1.29523 14.9763 1.43574 14.9227 1.56669C14.8691 1.69764 14.7893 1.81626 14.6883 1.91527L9.04611 7.49954L14.6883 13.1415C14.8784 13.3275 14.99 13.5795 14.9998 13.8453C14.9998 14.1513 14.8783 14.4448 14.6619 14.6612C14.4455 14.8775 14.152 14.9991 13.846 14.9991C13.6989 15.0052 13.5522 14.9806 13.4152 14.927C13.2781 14.8734 13.1537 14.7918 13.0499 14.6876L7.5 9.08022L1.90399 14.676C1.8065 14.7767 1.69003 14.8571 1.5613 14.9126C1.43258 14.968 1.29415 14.9974 1.15401 14.9991C0.847994 14.9991 0.554516 14.8775 0.338133 14.6612C0.12175 14.4448 0.000187733 14.1513 0.000187733 13.8453C-0.00250239 13.7039 0.0237435 13.5633 0.0773147 13.4324C0.130886 13.3014 0.210652 13.1828 0.311718 13.0838L5.95388 7.49954L0.311718 1.85758C0.121552 1.67154 0.0100409 1.41962 0.000187733 1.15378C0.000187733 0.847776 0.12175 0.554308 0.338133 0.337933C0.554516 0.121558 0.847994 0 1.15401 0C1.43092 0.00346133 1.6963 0.115378 1.89245 0.311519Z" fill="#F43F44"/>
</svg>
