<svg width="40" height="43" viewBox="0 0 40 43" fill="none" xmlns="http://www.w3.org/2000/svg">
<path d="M37.2001 9.48633L30.178 4.99313L18.745 23.5477L25.7627 28.0365L37.2001 9.48633ZM17.6741 29.2531L17.5191 33.4688L21.1808 31.4946L24.5861 29.6636L17.8147 25.3284L17.6741 29.2531ZM39.0738 2.66015L35.4033 0.307978C34.9594 0.0241836 34.423 -0.0683552 33.9122 0.0507079C33.4013 0.169771 32.9578 0.490689 32.6791 0.942903L31.23 3.28769L38.2478 7.77941L39.6969 5.43758C40.2765 4.49257 40.0012 3.24783 39.0738 2.6572V2.66015ZM33.3283 37.832C33.3283 38.2381 33.0022 38.5703 32.6037 38.5703H5.07169C4.87953 38.5703 4.69525 38.4925 4.55937 38.3541C4.4235 38.2156 4.34716 38.0278 4.34716 37.832V9.77721C4.34716 9.58141 4.4235 9.39362 4.55937 9.25517C4.69525 9.11671 4.87953 9.03893 5.07169 9.03893H24.263L26.993 4.60922H5.07169C2.27502 4.60922 0 6.92744 0 9.77721V37.832C0 40.6818 2.27502 43 5.07169 43H32.6037C35.4004 43 37.6754 40.6818 37.6754 37.832V14.2615L33.3283 21.3136V37.8364V37.832Z" fill="white"/>
</svg>
