<svg width="72" height="50" viewBox="0 0 72 50" fill="none" xmlns="http://www.w3.org/2000/svg">
<path d="M10.8 21.4286C14.7712 21.4286 18 18.2254 18 14.2857C18 10.346 14.7712 7.14286 10.8 7.14286C6.82875 7.14286 3.6 10.346 3.6 14.2857C3.6 18.2254 6.82875 21.4286 10.8 21.4286ZM61.2 21.4286C65.1712 21.4286 68.4 18.2254 68.4 14.2857C68.4 10.346 65.1712 7.14286 61.2 7.14286C57.2287 7.14286 54 10.346 54 14.2857C54 18.2254 57.2287 21.4286 61.2 21.4286ZM64.8 25H57.6C55.62 25 53.8312 25.7924 52.5262 27.0759C57.06 29.5424 60.2775 33.9955 60.975 39.2857H68.4C70.3913 39.2857 72 37.6897 72 35.7143V32.1429C72 28.2031 68.7712 25 64.8 25ZM36 25C42.9637 25 48.6 19.4085 48.6 12.5C48.6 5.59152 42.9637 0 36 0C29.0362 0 23.4 5.59152 23.4 12.5C23.4 19.4085 29.0362 25 36 25ZM44.64 28.5714H43.7062C41.3662 29.6875 38.7675 30.3571 36 30.3571C33.2325 30.3571 30.645 29.6875 28.2937 28.5714H27.36C20.205 28.5714 14.4 34.3304 14.4 41.4286V44.6429C14.4 47.6004 16.8188 50 19.8 50H52.2C55.1812 50 57.6 47.6004 57.6 44.6429V41.4286C57.6 34.3304 51.795 28.5714 44.64 28.5714ZM19.4738 27.0759C18.1688 25.7924 16.38 25 14.4 25H7.2C3.22875 25 0 28.2031 0 32.1429V35.7143C0 37.6897 1.60875 39.2857 3.6 39.2857H11.0138C11.7225 33.9955 14.94 29.5424 19.4738 27.0759Z" fill="#1CB57D"/>
</svg>
