<svg width="43" height="30" viewBox="0 0 43 30" fill="none" xmlns="http://www.w3.org/2000/svg">
<path d="M6.45 12.8571C8.82172 12.8571 10.75 10.9353 10.75 8.57143C10.75 6.20759 8.82172 4.28571 6.45 4.28571C4.07828 4.28571 2.15 6.20759 2.15 8.57143C2.15 10.9353 4.07828 12.8571 6.45 12.8571ZM36.55 12.8571C38.9217 12.8571 40.85 10.9353 40.85 8.57143C40.85 6.20759 38.9217 4.28571 36.55 4.28571C34.1783 4.28571 32.25 6.20759 32.25 8.57143C32.25 10.9353 34.1783 12.8571 36.55 12.8571ZM38.7 15H34.4C33.2175 15 32.1492 15.4754 31.3698 16.2455C34.0775 17.7254 35.9991 20.3973 36.4156 23.5714H40.85C42.0392 23.5714 43 22.6138 43 21.4286V19.2857C43 16.9219 41.0717 15 38.7 15ZM21.5 15C25.6589 15 29.025 11.6451 29.025 7.5C29.025 3.35491 25.6589 0 21.5 0C17.3411 0 13.975 3.35491 13.975 7.5C13.975 11.6451 17.3411 15 21.5 15ZM26.66 17.1429H26.1023C24.7048 17.8125 23.1528 18.2143 21.5 18.2143C19.8472 18.2143 18.3019 17.8125 16.8977 17.1429H16.34C12.0669 17.1429 8.6 20.5982 8.6 24.8571V26.7857C8.6 28.5603 10.0445 30 11.825 30H31.175C32.9555 30 34.4 28.5603 34.4 26.7857V24.8571C34.4 20.5982 30.9331 17.1429 26.66 17.1429ZM11.6302 16.2455C10.8508 15.4754 9.7825 15 8.6 15H4.3C1.92828 15 0 16.9219 0 19.2857V21.4286C0 22.6138 0.960781 23.5714 2.15 23.5714H6.57766C7.00094 20.3973 8.9225 17.7254 11.6302 16.2455Z" fill="white"/>
</svg>
