<?xml version="1.0" encoding="iso-8859-1"?>
<!-- Generator: Adobe Illustrator 16.0.0, SVG Export Plug-In . SVG Version: 6.00 Build 0)  -->
<!DOCTYPE svg PUBLIC "-//W3C//DTD SVG 1.1//EN" "http://www.w3.org/Graphics/SVG/1.1/DTD/svg11.dtd">
<svg version="1.1" id="Capa_1" xmlns="http://www.w3.org/2000/svg" xmlns:xlink="http://www.w3.org/1999/xlink" x="0px" y="0px"
	 width="31.955px" height="31.954px" viewBox="0 0 31.955 31.954" style="enable-background:new 0 0 31.955 31.954;"
	 xml:space="preserve">
<g>
	<g>
		<path d="M30.279,16.064c0,0-1.279,0.26-2.886,0.461l-0.76-3.285h0.586V7.77h-2V3.467h-2.126v4.304h-2v5.47h0.585l-0.759,3.278
			c-1.605-0.201-2.887-0.455-2.887-0.455v2.449c0,0,0.996,0.199,2.336,0.383L18.05,28.914l0.667,0.152l-0.192,0.877l0.406,0.091
			l-0.081,0.37l0.229,0.051l0.082-0.371l0.494,0.107l0.189-0.863l0.734,0.17l2.431-10.333c0.397,0.024,0.795,0.04,1.177,0.04
			c0.363,0,0.737-0.014,1.114-0.034l2.431,10.327l0.729-0.169l0.204,0.927l0.494-0.107l0.08,0.371l0.231-0.051l-0.082-0.371
			l0.406-0.091l-0.206-0.938l0.671-0.153l-2.317-10.013c1.34-0.186,2.336-0.387,2.336-0.387V16.064L30.279,16.064z M21.72,8.398
			h4.871v4.214h-0.104h-1.936h-0.793h-1.936H21.72V8.398z M20.113,28.744l-1.309-0.303l2.189-9.463
			c0.443,0.055,0.91,0.102,1.382,0.144L20.113,28.744z M22.943,16.713c-0.469-0.027-0.939-0.07-1.396-0.12l0.775-3.353h1.438
			L22.943,16.713z M24.187,16.755c-0.199,0-0.402-0.005-0.607-0.011l0.576-2.447l0.576,2.449
			C24.548,16.752,24.365,16.755,24.187,16.755z M24.552,13.24h1.436l0.778,3.359c-0.457,0.047-0.929,0.088-1.396,0.117L24.552,13.24
			z M29.508,28.441l-1.308,0.303l-2.264-9.618c0.473-0.039,0.939-0.089,1.383-0.142L29.508,28.441z"/>
		<path d="M1.675,10.453l7.379,21.501l1.051-2.626l0.003,0.001l0.301-0.759L21.861,0L1.675,10.453z M19.044,4.21L18.75,4.951
			L17.361,4.4L17.16,4.909l1.389,0.551L18.33,6.01l-0.948-0.377l-0.202,0.509l0.947,0.377l-0.301,0.755l-1.387-0.553l-0.203,0.51
			l1.388,0.551l-0.218,0.551l-0.948-0.377l-0.203,0.51l0.95,0.374l-0.277,0.697l-1.388-0.553l-0.201,0.51l1.388,0.551l-0.218,0.551
			l-0.947-0.377l-0.202,0.508l0.947,0.376l-0.299,0.756l-1.39-0.552l-0.201,0.509l1.388,0.551l-0.218,0.551l-0.949-0.376
			l-0.201,0.508l0.947,0.376l-0.27,0.681l-0.023-0.01l-0.141,0.381l-1.043-0.415l-0.205,0.508l1.102,0.438l-0.22,0.549l-0.659-0.262
			l-0.201,0.508l0.657,0.262l-0.303,0.754l-1.095-0.438l-0.203,0.51l1.095,0.436l-0.22,0.55l-0.651-0.259l-0.204,0.508l0.65,0.259
			l-0.295,0.74l-1.223-0.485l-0.202,0.51l1.22,0.483l-0.22,0.55l-0.778-0.309l-0.202,0.508l0.777,0.307l-0.303,0.756L11.01,20.96
			l-0.203,0.51l1.213,0.481l-0.22,0.548l-0.772-0.308l-0.201,0.51l0.769,0.307l-0.279,0.697l-1.208-0.48l-0.202,0.508l1.207,0.479
			l-0.22,0.549l-0.763-0.304l-0.204,0.509l0.763,0.304l-0.303,0.756l-1.202-0.479l-0.201,0.509l1.2,0.478L9.966,27.08l-0.759-0.303
			l-0.201,0.51l0.756,0.301l-0.638,1.59L2.86,10.929l17.022-8.815l-0.634,1.589l-0.816-0.324L18.23,3.888L19.044,4.21z"/>
		<path d="M9.516,21.268l5.428-13.542l-8.554,4.43L9.516,21.268z M9.588,18.491l-2.013-5.859l5.502-2.851L9.588,18.491z"/>
	</g>
</g>
<g>
</g>
<g>
</g>
<g>
</g>
<g>
</g>
<g>
</g>
<g>
</g>
<g>
</g>
<g>
</g>
<g>
</g>
<g>
</g>
<g>
</g>
<g>
</g>
<g>
</g>
<g>
</g>
<g>
</g>
</svg>
